<?xml version="1.0" ?><!DOCTYPE svg  PUBLIC '-//W3C//DTD SVG 1.1//EN'  'http://www.w3.org/Graphics/SVG/1.1/DTD/svg11.dtd'><svg enable-background="new 0 0 512 512" height="512px" id="Layer_1" version="1.1" viewBox="0 0 512 512" width="512px" xml:space="preserve" xmlns="http://www.w3.org/2000/svg" xmlns:xlink="http://www.w3.org/1999/xlink"><g><path d="M491.25,123.266c-6.313,6.313-16.5,6.281-22.813,0l-19.595-19.594l-45.03,45l-39.906-39.906l45.016-45.031   l-20.203-20.219c-6.281-6.281-6.281-16.5,0-22.781c6.313-6.313,16.531-6.313,22.813-0.031l79.719,79.75   C497.563,106.766,497.594,116.984,491.25,123.266z M427.281,197.016c6.281,6.313,6.313,16.547,0,22.844   c-6.313,6.281-16.531,6.281-22.813,0.031l-10.625-10.625L229.219,373.859c-18.219,18.233-44.641,23-67.328,14.656l-6.703,6.719   c-6.375,6.358-16.688,6.358-23.016,0l-0.016-0.017L49.5,478.063c-1.25,1.25-2.922,1.938-4.688,1.938H26.609   c-1.047,0-2-0.625-2.391-1.625c-0.406-0.969-0.188-2.094,0.547-2.844l93.781-93.938l-1.828-1.828   c-6.328-6.344-6.344-16.594,0-23.016l7.047-7.047c-7.844-22.469-3.016-48.391,14.953-66.344l164.609-164.594l-10.609-10.625   c-6.28-6.297-6.28-16.5,0-22.813c6.345-6.313,16.563-6.313,22.875,0L427.281,197.016z M376.859,192.281l-56.547-56.547   l-16.392,16.375l20.234,20.297c4.75,4.75,4.75,12.484,0,17.234c-4.72,4.813-12.47,4.781-17.25,0l-20.281-20.25l-16.969,16.969   l20.28,20.281c4.75,4.75,4.75,12.484,0.031,17.219c-4.781,4.813-12.531,4.813-17.313,0.016l-20.297-20.219l-22.141,22.125   c-0.016,0.016-0.063,0.031-0.078,0.047L151,304.984c-3.75,3.75-3.75,9.844,0,13.594s9.813,3.75,13.563,0l61.984-62h85.969   L376.859,192.281z" fill="rgba(4, 123, 175, 0.8)"/></g></svg>
