<?xml version="1.0" ?><!DOCTYPE svg  PUBLIC '-//W3C//DTD SVG 1.1//EN'  'http://www.w3.org/Graphics/SVG/1.1/DTD/svg11.dtd'><svg enable-background="new 0 0 500 500" height="500px" id="Layer_1" version="1.1" viewBox="0 0 500 500" width="500px" xml:space="preserve" xmlns="http://www.w3.org/2000/svg" xmlns:xlink="http://www.w3.org/1999/xlink"><g><path d="M409.996,265.196c-20.533,0-37.169,16.636-37.169,37.164c0,20.524,16.636,37.173,37.169,37.173   c20.521,0,37.179-16.648,37.179-37.173C447.175,281.832,430.518,265.196,409.996,265.196z M409.999,315.717   c-7.376,0-13.352-5.98-13.352-13.354c0-7.374,5.976-13.351,13.352-13.351c7.372,0,13.355,5.977,13.355,13.351   C423.354,309.736,417.371,315.717,409.999,315.717z" fill="rgba(4, 123, 175, 0.8)"/><path d="M82.771,265.202c-20.514,0-37.164,16.644-37.164,37.17c0,20.528,16.65,37.172,37.164,37.172   c20.533,0,37.177-16.644,37.177-37.172C119.949,281.846,103.305,265.202,82.771,265.202z M82.776,315.717   c-7.376,0-13.352-5.98-13.352-13.354c0-7.374,5.976-13.351,13.352-13.351c7.372,0,13.355,5.977,13.355,13.351   C96.132,309.736,90.148,315.717,82.776,315.717z" fill="rgba(4, 123, 175, 0.8)"/><path d="M479.373,245.464c-15.427-14.606-73.32-26.004-89.536-32.297c-16.209-6.292-89.081-43.421-118.253-49.604   c-29.18-6.172-125.292-2.548-150.065,5.606c-24.455,8.049-88.942,40.778-95.69,47.139c-6.749,6.363-15.361,42.739-16.452,59.155   c-1.091,16.42-0.239,30.781,1.881,37.876l20.09,2.088l0.388-12.581c0-28.555,23.162-51.703,51.723-51.703   c28.547,0,51.687,22.726,51.687,51.28L136.023,314h221.624l0.046-15.524c0-28.764,21.73-49.793,50.473-49.793   c28.762,0,53.678,21.354,53.678,50.111l1.062,14.783c0,0,21.519,0.295,30.483-3.067   C493.388,310.51,496.754,262.846,479.373,245.464z M220.992,224.982l-94.424-5.884c0,0,11.503-24.411,24.075-33.726   c9.315-7.937,70.797-7.723,70.797-7.723L220.992,224.982z M356.812,230.31l-120.325-4.771l0.315-47.961   c44.598-1.664,92.25,22.158,121.401,39.267C387.392,233.956,356.812,230.31,356.812,230.31z" fill="rgba(4, 123, 175, 0.8)"/></g></svg>
