<?xml version="1.0" ?><!DOCTYPE svg  PUBLIC '-//W3C//DTD SVG 1.0//EN'  'http://www.w3.org/TR/2001/REC-SVG-20010904/DTD/svg10.dtd'><svg enable-background="new 0 0 350 350" height="350px" id="Layer_1" version="1.0" viewBox="0 0 350 350" width="350px" xml:space="preserve" xmlns="http://www.w3.org/2000/svg" xmlns:xlink="http://www.w3.org/1999/xlink"><path d="M175.001,20.495C89.671,20.495,20.495,89.67,20.495,175s69.176,154.505,154.506,154.505  c85.329,0,154.504-69.175,154.504-154.505S260.33,20.495,175.001,20.495z M206.751,291.45c-12.203,0.104-12.213-14.42-12.213-14.42  h-38.207c-0.867,15.244-10.509,14.809-13.265,14.367c-43.598-11.934-77.351-47.677-86.374-92.402  c0.778-7.687,8.896-9.668,8.896-9.668l3.908-47.759c-7.41-2.577-6.771-9.528-5.949-12.946C81.729,84.984,124.775,54.3,175.001,54.3  c49.784,0,92.517,30.146,110.969,73.175c0.83,2.645,2.766,11.173-5.632,14.094l3.905,47.759c0,0,8.55,2.091,8.938,10.293  C283.958,244.117,250.235,279.62,206.751,291.45z M76.712,141.692l-3.018,46.434c92.867-13.269,83.58,81.649,83.58,81.649h37.146  c-1.328-95.521,81.886-81.649,81.886-81.649l-2.652-46.434C176.975,103.49,76.712,141.692,76.712,141.692z M175.001,179.342  c-12.469,0-22.578-5.702-22.578-12.735s10.109-12.735,22.578-12.735s22.577,5.702,22.577,12.735S187.47,179.342,175.001,179.342z" fill="rgba(4, 123, 175, 0.8)"/></svg>
