<?xml version="1.0" ?><!DOCTYPE svg  PUBLIC '-//W3C//DTD SVG 1.1//EN'  'http://www.w3.org/Graphics/SVG/1.1/DTD/svg11.dtd'><svg enable-background="new 0 0 48 48" id="Layer_1" version="1.1" viewBox="0 0 48 48" xml:space="preserve" xmlns="http://www.w3.org/2000/svg" xmlns:xlink="http://www.w3.org/1999/xlink"><g><path d="M30,42.3c0-4,3.2-7.3,7.2-7.3c1.2,0,2.3,0.3,3.2,0.8V16.4h-7.1c-6.1,0-11,5-11,11.1v19.7h9.5   C30.7,45.9,30,44.2,30,42.3z" fill="#010101"/><path d="M12.6,39.1H2.5c-1.1,0-2,0.9-2,2c0,1.1,0.9,2,2,2h10.1c1.1,0,2-0.9,2-2C14.7,40,13.8,39.1,12.6,39.1z" fill="#010101"/><ellipse cx="22.9" cy="13.6" fill="#010101" rx="3" ry="3.1"/><path d="M11.6,36.2H9.9c-1,0-1.7,0.8-1.7,1.8c0,1,0.8,1.8,1.7,1.8h1.7c1,0,1.7-0.8,1.7-1.8   C13.3,37,12.5,36.2,11.6,36.2z" fill="#010101"/><path d="M43.1,2.7c-0.2-0.1-5-3.3-10.5-1.8c-3.8,1-6.9,3.9-9.3,8.6c-0.5,1.1-13.2,26.2-14.8,30.2l2.6,1.1   c1.6-3.8,14.6-29.7,14.8-30c2-3.9,4.5-6.3,7.5-7.1c4.3-1.2,8.2,1.4,8.3,1.4c5.5,3.8,2.4,11.5,0.9,14.4h-4.3v2.7h6v0l0,0   C47,17.6,50.4,7.7,43.1,2.7z" fill="#010101"/><path d="M37.2,37.1c-2.8,0-5.2,2.3-5.2,5.2c0,2.9,2.3,5.2,5.2,5.2c2.9,0,5.2-2.3,5.2-5.2   C42.3,39.4,40,37.1,37.2,37.1z M37.2,44.4c-1.2,0-2.1-1-2.1-2.2c0-1.2,1-2.2,2.1-2.2c1.2,0,2.1,1,2.1,2.2   C39.3,43.5,38.4,44.4,37.2,44.4z" fill="#010101"/></g></svg>