<?xml version="1.0" ?><!DOCTYPE svg  PUBLIC '-//W3C//DTD SVG 1.0//EN'  'http://www.w3.org/TR/2001/REC-SVG-20010904/DTD/svg10.dtd'><svg enable-background="new 0 0 350 350" height="350px" id="Layer_1" version="1.0" viewBox="0 0 350 350" width="350px" xml:space="preserve" xmlns="http://www.w3.org/2000/svg" xmlns:xlink="http://www.w3.org/1999/xlink"><g><path clip-rule="evenodd" d="M327.67,171.157h-16.373c-1.09,0-2.151,0.129-3.194,0.325   l-16.284-38.129c-7.591-22.725-29.332-37.706-46.934-37.706H107.494c-17.601,0-38.981,13.226-45.133,37.706l-15.009,38.268   c-1.281-0.305-2.608-0.464-3.966-0.464H27.012c-10.823,0-19.597-0.544-19.597,11.923v8.289c0,12.467,8.774,14.286,19.597,14.286   h15.628v46.867c0,0.38,0.037,0.748,0.046,1.127c-0.011,0.345-0.045,0.665-0.045,1.023v27.719c0,15.346,10.59,27.783,23.653,27.783   h15.207c13.063,0,23.653-12.438,23.653-27.783v-2.813h144.871v2.813c0,15.346,10.59,27.783,23.652,27.783h15.206   c13.063,0,23.654-12.438,23.654-27.783v-76.736h15.132c10.822,0,19.597-1.819,19.597-14.286v-8.289   C347.267,170.613,338.492,171.157,327.67,171.157z M98.271,256.813c-13.699,0-24.806-11.108-24.806-24.807   c0-13.702,11.107-24.807,24.806-24.807c13.7,0,24.808,11.104,24.808,24.807C123.08,245.704,111.972,256.813,98.271,256.813z    M258.229,256.813c-13.7,0-24.808-11.108-24.808-24.807c0-13.702,11.107-24.807,24.808-24.807   c13.699,0,24.807,11.104,24.807,24.807C283.035,245.704,271.928,256.813,258.229,256.813z M265.437,189.431   c0,0-48.642-4.366-88.67-4.366c-40.027,0-87.089,4.366-87.089,4.366c-14.788,0-28.488,5.917-24.755-10.246l13.888-37.152   c6.498-20.159,21.053-31.682,35.842-31.682h121.407c14.789,0,32.112,14.095,37.712,31.682l14.837,37.152   C293.926,195.348,280.226,189.431,265.437,189.431z" fill="#608FB3" fill-rule="evenodd"/><polygon clip-rule="evenodd" fill="#608FB3" fill-rule="evenodd" points="289.276,98.504 294.956,74.846 318.615,69.165    294.956,63.483 289.276,39.825 283.595,63.483 259.936,69.165 283.595,74.846  "/><polygon clip-rule="evenodd" fill="#608FB3" fill-rule="evenodd" points="322.455,107.113 325.568,118.895 328.679,107.113    340.461,104.001 328.679,100.889 325.568,89.107 322.455,100.889 310.674,104.001  "/><polygon clip-rule="evenodd" fill="#608FB3" fill-rule="evenodd" points="17.627,144.911 20.739,133.129 32.521,130.017    20.739,126.905 17.627,115.123 14.516,126.905 2.733,130.017 14.516,133.129  "/></g></svg>
