<?xml version="1.0" ?><!DOCTYPE svg  PUBLIC '-//W3C//DTD SVG 1.0//EN'  'http://www.w3.org/TR/2001/REC-SVG-20010904/DTD/svg10.dtd'><svg enable-background="new 0 0 350 350" height="350px" id="Layer_1" version="1.0" viewBox="0 0 350 350" width="350px" xml:space="preserve" xmlns="http://www.w3.org/2000/svg" xmlns:xlink="http://www.w3.org/1999/xlink"><g><g><polygon fill="#047BAF" points="278.281,78.153 283.615,55.937 305.832,50.602 283.615,45.267 278.281,23.051 272.945,45.267     250.729,50.602 272.945,55.937   "/></g><g><polygon fill="#047BAF" points="302.908,89.787 291.846,92.709 302.908,95.631 305.832,106.695 308.752,95.631 319.816,92.709     308.752,89.787 305.832,78.723   "/></g><g><polygon fill="#047BAF" points="53.643,194.343 48.309,216.56 26.092,221.896 48.309,227.229 53.643,249.446 58.979,227.229     81.193,221.896 58.979,216.56   "/></g><g><polygon fill="#047BAF" points="26.092,248.608 23.17,259.671 12.105,262.595 23.17,265.515 26.092,276.579 29.014,265.515     40.078,262.595 29.014,259.671   "/></g><g><path d="M135.516,74.046h69.96c8.587,0,15.546-6.707,15.546-14.98l-6.217-24.713    c-3.887-10.11-10.07-14.978-18.656-14.978h-49.75c-8.587,0-17.49,7.488-20.211,14.978l-6.219,24.713    C119.969,67.339,126.93,74.046,135.516,74.046z" fill="#047BAF"/></g><g><path d="M131.214,239.733h80.696c-3.224-2.585-5.502-6.231-7.008-10.295c-2.419-6.463-3.158-14.147-3.162-21.484    c0.002-13.216,2.457-25.315,2.698-26.481h-0.001c3.104-18.912,7.236-33.169,10.596-53.289c1.678-10.062,3.163-19.085,4.229-25.882    c1.063-6.735,1.706-11.516,1.687-12.28c-0.035-5.904-2.11-8.642-4.069-10.218c-0.991-0.777-1.995-1.23-2.737-1.483    c-0.37-0.127-0.674-0.202-0.871-0.245c-0.057-0.013-0.105-0.021-0.144-0.029h-41.177h-0.777h-41.178    c-0.038,0.008-0.086,0.017-0.143,0.029c-0.198,0.043-0.502,0.118-0.872,0.245c-0.741,0.253-1.745,0.706-2.737,1.483    c-1.959,1.576-4.033,4.313-4.069,10.218c-0.02,0.765,0.623,5.545,1.687,12.28c1.066,6.797,2.552,15.82,4.229,25.882    c3.36,20.12,7.493,34.377,10.596,53.289h-0.001c0.242,1.166,2.697,13.266,2.699,26.481c-0.005,7.337-0.744,15.021-3.163,21.484    C136.716,233.502,134.438,237.148,131.214,239.733z" fill="#047BAF"/></g><g><path d="M107.66,222.32c0,0,1.123,7.619,6.161,11.873c3.187,2.688,7.298,4.134,10.111,4.867    c5.155-1.479,8.402-5.405,10.544-11.03c2.156-5.719,2.915-13.019,2.908-20.076c0.002-6.675-0.658-13.133-1.317-17.908    s-1.31-7.825-1.312-7.832l-0.01-0.043l-0.01-0.051c-4.645-28.342-11.621-58.736-14.824-79.2    c-1.068-6.887-1.719-11.291-1.738-12.898c-0.027-5.726,1.866-9.622,4.154-12.048c-1.241-0.018-12.031,0.043-15.9,7.126    c-4.107,7.519-15.199,23.349-15.199,23.349s-5.34,6.729-2.465,28.495C91.639,158.709,107.66,222.32,107.66,222.32z" fill="#047BAF"/></g><g><path d="M224.95,90.021c-0.019,1.607-0.669,6.012-1.737,12.898c-3.204,20.464-10.18,50.858-14.824,79.2    l-0.01,0.051l-0.01,0.043c-0.003,0.007-0.652,3.057-1.313,7.832c-0.659,4.775-1.318,11.233-1.316,17.908    c-0.008,7.058,0.751,14.357,2.908,20.076c2.086,5.479,5.221,9.349,10.147,10.913c2.394-0.732,5.563-2.12,8.374-4.75    c4.438-4.155,6.162-11.873,6.162-11.873s16.02-63.611,18.896-85.377c2.875-21.767-2.464-28.495-2.464-28.495    s-11.092-15.83-15.199-23.349c-2.967-5.43-9.999-6.731-13.682-7.037C223.133,80.495,224.978,84.368,224.95,90.021z" fill="#047BAF"/></g><g><path d="M111.952,310.904l0.065-0.19l21.641-35.992c-7.52-5.142-11.727-12.855-14.092-19.417    c-1.332-3.712-2.088-7.075-2.512-9.488c-6.857,1.574-10.154,8.327-13.271,15.486l-20.813,48.545    c0,8.744,1.37,37.993,30.672,37.993h8.277c-8.865-16.038-10.571-26.437-10.571-32.018    C111.346,312.717,111.877,311.116,111.952,310.904z" fill="#047BAF"/></g><g><path d="M123.332,253.95c2.3,6.403,6.404,13.679,13.527,18.108c2.088-1.211,6.9-3.547,13.174-3.563h39.434    c6.279,0.016,11.095,2.354,13.18,3.565c10.787-6.645,14.608-20.062,15.803-26.589h-97.393    C121.462,247.684,122.158,250.688,123.332,253.95z" fill="#047BAF"/></g><g><path d="M222.434,245.895c-0.426,2.407-1.182,5.739-2.5,9.41c-2.364,6.564-6.574,14.283-14.101,19.425l0.061-0.036    v-0.003l21.659,36.023l0.066,0.19c0.074,0.212,0.605,1.813,0.604,4.919c0,5.581-1.706,15.979-10.572,32.018h7.727    c29.576,0,30.672-29.249,30.672-37.993l-20.813-48.545C232.193,253.411,228.968,247.463,222.434,245.895z" fill="#047BAF"/></g><g><path d="M224.01,312.961c-0.047-0.263-0.09-0.454-0.122-0.575L202.47,276.75c0,0-1.056-0.755-1.193-0.842    c-0.14-0.092-0.354-0.225-0.64-0.389c-0.57-0.331-1.421-0.78-2.493-1.229c-2.149-0.9-5.184-1.797-8.677-1.795h-39.434    c-6.104-0.014-10.838,2.773-11.807,3.413c-0.141,0.09-1.123,0.844-1.123,0.844l-21.42,35.634    c-0.032,0.121-0.076,0.313-0.122,0.575c-0.103,0.589-0.214,1.533-0.214,2.862c0,4.953,1.568,15.286,11.161,32.018h86.554    c9.593-16.731,11.16-27.064,11.16-32.018C224.223,314.494,224.111,313.55,224.01,312.961z" fill="#047BAF"/></g><g><circle cx="65.02" cy="83.338" fill="#047BAF" r="18.465"/></g><g><circle cx="68.752" cy="43.732" fill="#047BAF" r="15.11"/></g><g><circle cx="38.538" cy="58.795" fill="#047BAF" r="9.233"/></g><g><circle cx="104.256" cy="11.392" fill="#047BAF" r="9.233"/></g><g><circle cx="326.682" cy="232.143" fill="#047BAF" r="11.213"/></g><g><circle cx="22.322" cy="20.625" fill="#047BAF" r="9.232"/></g><g><circle cx="285.273" cy="317.593" fill="#047BAF" r="9.232"/></g><g><circle cx="277.715" cy="232.144" fill="#047BAF" r="25.063"/></g><g><circle cx="312.83" cy="272.441" fill="#047BAF" r="15.424"/></g></g></svg>
