<?xml version="1.0" ?><!DOCTYPE svg  PUBLIC '-//W3C//DTD SVG 1.1//EN'  'http://www.w3.org/Graphics/SVG/1.1/DTD/svg11.dtd'><svg enable-background="new 0 0 512 512" height="512px" id="Layer_1" version="1.1" viewBox="0 0 512 512" width="512px" xml:space="preserve" xmlns="http://www.w3.org/2000/svg" xmlns:xlink="http://www.w3.org/1999/xlink"><g><g><g><g><path d="M479.119,124.725c0-38.977-68.852-56.727-132.844-56.727c-17.805,0-35.84,1.526-52.797,4.353      C277.791,44.2,220.385,31,165.725,31C101.732,31,32.881,48.75,32.881,87.755v124.59c0,38.977,68.852,56.727,132.844,56.727      c15.996,0,32.305-1.103,47.766-3.392v39.599c-63.453,0.367-130.922,18.09-130.922,56.699v62.266      C82.568,463.25,151.42,481,215.412,481s132.844-17.75,132.844-56.756v-55.906c63.426-0.368,130.863-18.09,130.863-56.699      V125.347h-0.141C478.979,125.121,479.119,124.951,479.119,124.725z M165.725,59.943c50.195,0,83.125,10.91,96.719,19.842      c-21.988,7.094-39.23,17.326-45.871,31.345c-14.305,2.601-31.062,4.409-50.848,4.409c-67.496,0-103.902-19.729-103.902-27.784      C61.822,79.671,98.229,59.943,165.725,59.943z M61.822,124.556c25.977,13.426,65.66,19.926,103.902,19.926      c16.109,0,32.277-1.413,47.766-3.759v33.295c-13.625,2.29-29.453,3.816-47.766,3.816c-67.496,0-103.902-19.729-103.902-27.812      V124.556z M165.725,240.129c-67.496,0-103.902-19.729-103.902-27.784v-25.495c25.977,13.426,65.66,19.927,103.902,19.927      c16.109,0,32.277-1.414,47.766-3.759v33.295C199.865,238.603,184.037,240.129,165.725,240.129z M319.311,424.244      c0,8.084-36.402,27.812-103.898,27.812S111.51,432.328,111.51,424.244v-25.466c25.977,13.426,65.66,19.927,103.902,19.927      s77.926-6.501,103.898-19.927V424.244z M315.947,366.867c-9.977,9.243-44.262,22.895-100.535,22.895      c-67.496,0-103.902-19.729-103.902-27.783c0-8.084,36.406-27.812,103.902-27.812c2.828,0,5.258,0.226,7.969,0.282      c62.184,1.526,95.93,19.785,95.93,27.53C319.311,363.307,317.928,365.03,315.947,366.867z M450.178,311.639      c0,8.084-36.406,27.812-103.902,27.812c-2.797,0-5.227-0.227-7.914-0.283c-17.211-18.908-55.254-29.564-95.93-32.787v-20.236      c25.977,13.396,65.633,19.898,103.844,19.898c38.242,0,77.926-6.502,103.902-19.928V311.639z M450.178,249.315      c0,8.056-36.406,27.784-103.902,27.784c-50.195,0-83.098-10.91-96.691-19.813c-4.691-3.081-7.152-5.907-7.152-7.971v-25.438      c2.094,1.074,4.75,1.837,6.984,2.798c10.824,4.749,23.176,8.621,36.828,11.334c18.938,3.787,39.598,5.794,60.031,5.794      c38.242,0,77.926-6.501,103.902-19.926V249.315z M450.178,187.048c0,8.084-36.406,27.812-103.902,27.812      c-18.312,0-34.141-1.526-47.766-3.816c-11.25-1.865-21.027-4.268-28.941-6.925c-8.848-2.939-15.574-6.162-20.125-9.158      c-4.609-3.052-7.012-5.851-7.012-7.914v-25.495c2.094,1.074,4.75,1.837,7.012,2.827c13.988,6.133,30.75,10.571,49.066,13.341      c15.488,2.346,31.656,3.759,47.766,3.759c38.242,0,77.926-6.501,103.902-19.927V187.048z M346.275,152.538      c-18.312,0-34.141-1.526-47.766-3.816c-11.25-1.865-21.027-4.268-28.941-6.925c-8.82-2.939-15.547-6.162-20.098-9.158      c-4.605-3.024-7.039-5.851-7.039-7.914c0-5.879,19.531-17.863,56.078-23.968c13.625-2.29,29.453-3.816,47.766-3.816      c67.496,0,103.902,19.729,103.902,27.784C450.178,132.809,413.771,152.538,346.275,152.538z" fill="#4D4D4D"/></g></g></g></g></svg>